<?xml version="1.0" encoding="UTF-8" standalone="no"?>
<svg id="full-star-svg" xmlns="http://www.w3.org/2000/svg" xml:space="preserve" fill-rule="evenodd" stroke-linejoin="round" stroke-miterlimit="2" clip-rule="evenodd" viewBox="0 0 2000 2000">
	<defs>
      <linearGradient id="graddd">
        <stop id="star-color-first-half" offset="50%" stop-color="orange"/>
        <stop id="star-color-second-half" offset="50%" stop-color="orange"/>
      </linearGradient>
    </defs>
  <path fill="url(#graddd)" d="m1391.85 1644.68-392.674-270.66-393.489 269.01 123.323-475.74-365.117-310.346 469.26-23.781 167.477-460.629 166.49 461.509 469.01 25.394-366.79 308.943 122.51 476.3Z"/>
  <path fill="orange" d="m1213.76 771.324 590.16 31.954-461.28 388.552 155.71 605.38-499.325-344.17-500 341.83 156.673-604.39-459.164-390.286 590.159-29.909 214.177-589.069 212.89 590.108Zm178.09 873.356-392.674-270.66-393.489 269.01 123.323-475.74-365.117-310.346 469.26-23.781 167.477-460.629 166.49 461.509 469.01 25.394-366.79 308.943 122.51 476.3Z"/>
</svg>